<mxfile host="app.diagrams.net" agent="Mozilla/5.0 (X11; Linux x86_64; rv:142.0) Gecko/20100101 Firefox/142.0" version="28.2.2">
  <diagram name="Page-1" id="ksgq_e21O0RgzJ2246ls">
    <mxGraphModel grid="1" page="1" gridSize="10" guides="1" tooltips="1" connect="1" arrows="1" fold="1" pageScale="1" pageWidth="850" pageHeight="1100" math="0" shadow="0">
      <root>
        <mxCell id="0" />
        <mxCell id="1" parent="0" />
        <mxCell id="3e57D6IeS3Btrj79OkyP-5" value="Garcom" style="swimlane;fontStyle=1;align=center;verticalAlign=top;childLayout=stackLayout;horizontal=1;startSize=26;horizontalStack=0;resizeParent=1;resizeParentMax=0;resizeLast=0;collapsible=1;marginBottom=0;whiteSpace=wrap;html=1;" vertex="1" parent="1">
          <mxGeometry x="-220" y="-38" width="330" height="200" as="geometry" />
        </mxCell>
        <mxCell id="3e57D6IeS3Btrj79OkyP-6" value="&lt;div&gt;- gorjetas: float&lt;/div&gt;&lt;div&gt;- mesas_ atendidas: list&amp;lt;Mesa&amp;gt;&lt;/div&gt;" style="text;strokeColor=none;fillColor=none;align=left;verticalAlign=top;spacingLeft=4;spacingRight=4;overflow=hidden;rotatable=0;points=[[0,0.5],[1,0.5]];portConstraint=eastwest;whiteSpace=wrap;html=1;" vertex="1" parent="3e57D6IeS3Btrj79OkyP-5">
          <mxGeometry y="26" width="330" height="54" as="geometry" />
        </mxCell>
        <mxCell id="3e57D6IeS3Btrj79OkyP-7" value="" style="line;strokeWidth=1;fillColor=none;align=left;verticalAlign=middle;spacingTop=-1;spacingLeft=3;spacingRight=3;rotatable=0;labelPosition=right;points=[];portConstraint=eastwest;strokeColor=inherit;" vertex="1" parent="3e57D6IeS3Btrj79OkyP-5">
          <mxGeometry y="80" width="330" height="8" as="geometry" />
        </mxCell>
        <mxCell id="3e57D6IeS3Btrj79OkyP-8" value="&lt;div&gt;+ &amp;lt;&amp;lt;create&amp;gt;&amp;gt; __init__(id: int, nome: str, salario_base: float)&lt;/div&gt;&lt;div&gt;+ &amp;lt;&amp;gt; mesas_atendidas(): list&amp;lt;Mesa&amp;gt;&lt;/div&gt;&lt;div&gt;+ adicionar_mesa(mesa: Mesa): bool&lt;/div&gt;&lt;div&gt;+ remover_mesa(mesa: Mesa)&lt;/div&gt;&lt;div&gt;+ calcular_pagamento(): float&amp;nbsp;&lt;/div&gt;&lt;div&gt;+ exibir_dados(): str&lt;/div&gt;&lt;div&gt;&lt;br&gt;&lt;br&gt;&lt;/div&gt;" style="text;strokeColor=none;fillColor=none;align=left;verticalAlign=top;spacingLeft=4;spacingRight=4;overflow=hidden;rotatable=0;points=[[0,0.5],[1,0.5]];portConstraint=eastwest;whiteSpace=wrap;html=1;" vertex="1" parent="3e57D6IeS3Btrj79OkyP-5">
          <mxGeometry y="88" width="330" height="112" as="geometry" />
        </mxCell>
        <mxCell id="3e57D6IeS3Btrj79OkyP-25" value="ItemPedido" style="swimlane;fontStyle=1;align=center;verticalAlign=top;childLayout=stackLayout;horizontal=1;startSize=26;horizontalStack=0;resizeParent=1;resizeParentMax=0;resizeLast=0;collapsible=1;marginBottom=0;whiteSpace=wrap;html=1;" vertex="1" parent="1">
          <mxGeometry x="606.71" y="325" width="400" height="160" as="geometry" />
        </mxCell>
        <mxCell id="3e57D6IeS3Btrj79OkyP-26" value="&lt;div&gt;- prato: Prato&lt;/div&gt;&lt;div&gt;- quantidade: int&lt;/div&gt;&lt;div&gt;- observacao: str&lt;/div&gt;" style="text;strokeColor=none;fillColor=none;align=left;verticalAlign=top;spacingLeft=4;spacingRight=4;overflow=hidden;rotatable=0;points=[[0,0.5],[1,0.5]];portConstraint=eastwest;whiteSpace=wrap;html=1;" vertex="1" parent="3e57D6IeS3Btrj79OkyP-25">
          <mxGeometry y="26" width="400" height="54" as="geometry" />
        </mxCell>
        <mxCell id="3e57D6IeS3Btrj79OkyP-27" value="" style="line;strokeWidth=1;fillColor=none;align=left;verticalAlign=middle;spacingTop=-1;spacingLeft=3;spacingRight=3;rotatable=0;labelPosition=right;points=[];portConstraint=eastwest;strokeColor=inherit;" vertex="1" parent="3e57D6IeS3Btrj79OkyP-25">
          <mxGeometry y="80" width="400" height="8" as="geometry" />
        </mxCell>
        <mxCell id="3e57D6IeS3Btrj79OkyP-28" value="&lt;div&gt;+ &amp;lt;&amp;lt;create&amp;gt;&amp;gt; __init__(prato: Prato, quantidade: int, observacao: str)&lt;/div&gt;&lt;div&gt;+ get_prato(): Prato&amp;nbsp;&lt;/div&gt;&lt;div&gt;+ calcular_subtotal(): float&amp;nbsp;&lt;/div&gt;&lt;div&gt;+ get_quantidade(): int&amp;nbsp;&lt;/div&gt;" style="text;strokeColor=none;fillColor=none;align=left;verticalAlign=top;spacingLeft=4;spacingRight=4;overflow=hidden;rotatable=0;points=[[0,0.5],[1,0.5]];portConstraint=eastwest;whiteSpace=wrap;html=1;" vertex="1" parent="3e57D6IeS3Btrj79OkyP-25">
          <mxGeometry y="88" width="400" height="72" as="geometry" />
        </mxCell>
        <mxCell id="3e57D6IeS3Btrj79OkyP-38" value="Mesa" style="swimlane;fontStyle=1;align=center;verticalAlign=top;childLayout=stackLayout;horizontal=1;startSize=26;horizontalStack=0;resizeParent=1;resizeParentMax=0;resizeLast=0;collapsible=1;marginBottom=0;whiteSpace=wrap;html=1;" vertex="1" parent="1">
          <mxGeometry x="-810" y="-75" width="360" height="320" as="geometry" />
        </mxCell>
        <mxCell id="3e57D6IeS3Btrj79OkyP-39" value="&lt;div&gt;- id_mesa: int&amp;nbsp; &amp;nbsp; &amp;nbsp; &amp;nbsp; &amp;nbsp; &amp;nbsp; &amp;nbsp; &amp;nbsp; &amp;nbsp; &amp;nbsp; &amp;nbsp; &amp;nbsp; &amp;nbsp; &amp;nbsp; &amp;nbsp; &amp;nbsp; &amp;nbsp; &amp;nbsp; &amp;nbsp; &amp;nbsp; &amp;nbsp; &amp;nbsp;&lt;/div&gt;&lt;div&gt;- capacidade: int&lt;/div&gt;&lt;div&gt;- status: StatusMesa&lt;/div&gt;&lt;div&gt;- grupo_cliente: Optional[GrupoCliente]&lt;/div&gt;&lt;div&gt;- conta: Optional[Conta]&lt;/div&gt;&lt;div&gt;- garcom_responsavel: Optional[Garcom]&lt;/div&gt;" style="text;strokeColor=none;fillColor=none;align=left;verticalAlign=top;spacingLeft=4;spacingRight=4;overflow=hidden;rotatable=0;points=[[0,0.5],[1,0.5]];portConstraint=eastwest;whiteSpace=wrap;html=1;" vertex="1" parent="3e57D6IeS3Btrj79OkyP-38">
          <mxGeometry y="26" width="360" height="94" as="geometry" />
        </mxCell>
        <mxCell id="3e57D6IeS3Btrj79OkyP-40" value="" style="line;strokeWidth=1;fillColor=none;align=left;verticalAlign=middle;spacingTop=-1;spacingLeft=3;spacingRight=3;rotatable=0;labelPosition=right;points=[];portConstraint=eastwest;strokeColor=inherit;" vertex="1" parent="3e57D6IeS3Btrj79OkyP-38">
          <mxGeometry y="120" width="360" height="8" as="geometry" />
        </mxCell>
        <mxCell id="3e57D6IeS3Btrj79OkyP-41" value="&lt;div&gt;+ &amp;lt;&amp;lt;create&amp;gt;&amp;gt; __init__(id_mesa: int, capacidade: int)- _proximo_id_conta: int {static}&lt;/div&gt;+ get_id_mesa(): int&amp;nbsp; &amp;nbsp; &amp;nbsp; &amp;nbsp; &amp;nbsp; &amp;nbsp; &amp;nbsp; &amp;nbsp; &amp;nbsp; &amp;nbsp; &amp;nbsp; &amp;nbsp; &amp;nbsp; &amp;nbsp; &amp;nbsp; &amp;nbsp; &amp;nbsp; &amp;nbsp; &amp;nbsp; &amp;nbsp;&amp;nbsp;&lt;div&gt;+ get_capacidade(): int&amp;nbsp; &amp;nbsp; &amp;nbsp; &amp;nbsp; &amp;nbsp; &amp;nbsp; &amp;nbsp; &amp;nbsp; &amp;nbsp; &amp;nbsp; &amp;nbsp; &amp;nbsp; &amp;nbsp; &amp;nbsp; &amp;nbsp; &amp;nbsp; &amp;nbsp; &amp;nbsp; &amp;nbsp;&lt;/div&gt;&lt;div&gt;+ get_conta(): Optional[Conta]&amp;nbsp; &amp;nbsp; &amp;nbsp; &amp;nbsp; &amp;nbsp; &amp;nbsp; &amp;nbsp; &amp;nbsp; &amp;nbsp; &amp;nbsp; &amp;nbsp; &amp;nbsp; &amp;nbsp; &amp;nbsp; &amp;nbsp;&amp;nbsp;&lt;/div&gt;+ get_status(): StatusMesa&amp;nbsp; &amp;nbsp; &amp;nbsp; &amp;nbsp; &amp;nbsp; &amp;nbsp; &amp;nbsp; &amp;nbsp; &amp;nbsp; &amp;nbsp; &amp;nbsp; &amp;nbsp; &amp;nbsp; &amp;nbsp; &amp;nbsp; &amp;nbsp; &amp;nbsp;&amp;nbsp;&lt;br&gt;+ get_garcom_responsavel(): Optional[Garcom]&amp;nbsp; &amp;nbsp; &amp;nbsp; &amp;nbsp;&lt;br&gt;+ set_garcom_responsavel(garcom: Optional[Garcom]): void&amp;nbsp;&amp;nbsp;&lt;br&gt;+ ocupar(grupo: GrupoCliente): bool&amp;nbsp; &amp;nbsp; &amp;nbsp; &amp;nbsp; &amp;nbsp; &amp;nbsp; &amp;nbsp; &amp;nbsp; &amp;nbsp; &amp;nbsp; &amp;nbsp; &amp;nbsp; &amp;nbsp;&lt;br&gt;+ liberar(): void&amp;nbsp; &amp;nbsp; &amp;nbsp; &amp;nbsp; &amp;nbsp; &amp;nbsp; &amp;nbsp; &amp;nbsp; &amp;nbsp; &amp;nbsp; &amp;nbsp; &amp;nbsp; &amp;nbsp; &amp;nbsp; &amp;nbsp; &amp;nbsp; &amp;nbsp; &amp;nbsp; &amp;nbsp; &amp;nbsp; &amp;nbsp; &amp;nbsp;&lt;br&gt;+ limpar(): void&amp;nbsp; &amp;nbsp; &amp;nbsp; &amp;nbsp; &amp;nbsp; &amp;nbsp; &amp;nbsp; &amp;nbsp; &amp;nbsp; &amp;nbsp; &amp;nbsp; &amp;nbsp; &amp;nbsp; &amp;nbsp; &amp;nbsp; &amp;nbsp; &amp;nbsp; &amp;nbsp; &amp;nbsp; &amp;nbsp; &amp;nbsp; &amp;nbsp;&amp;nbsp;&lt;br&gt;+ __str__(): str &lt;div&gt;&lt;br&gt;&lt;/div&gt;" style="text;strokeColor=none;fillColor=none;align=left;verticalAlign=top;spacingLeft=4;spacingRight=4;overflow=hidden;rotatable=0;points=[[0,0.5],[1,0.5]];portConstraint=eastwest;whiteSpace=wrap;html=1;" vertex="1" parent="3e57D6IeS3Btrj79OkyP-38">
          <mxGeometry y="128" width="360" height="192" as="geometry" />
        </mxCell>
        <mxCell id="3e57D6IeS3Btrj79OkyP-42" value="Cozinheiro" style="swimlane;fontStyle=1;align=center;verticalAlign=top;childLayout=stackLayout;horizontal=1;startSize=26;horizontalStack=0;resizeParent=1;resizeParentMax=0;resizeLast=0;collapsible=1;marginBottom=0;whiteSpace=wrap;html=1;" vertex="1" parent="1">
          <mxGeometry x="160" y="-38" width="320" height="200" as="geometry" />
        </mxCell>
        <mxCell id="3e57D6IeS3Btrj79OkyP-44" value="" style="line;strokeWidth=1;fillColor=none;align=left;verticalAlign=middle;spacingTop=-1;spacingLeft=3;spacingRight=3;rotatable=0;labelPosition=right;points=[];portConstraint=eastwest;strokeColor=inherit;" vertex="1" parent="3e57D6IeS3Btrj79OkyP-42">
          <mxGeometry y="26" width="320" height="8" as="geometry" />
        </mxCell>
        <mxCell id="3e57D6IeS3Btrj79OkyP-45" value="&lt;div&gt;+ &amp;lt;&amp;lt;create&amp;gt;&amp;gt; __init__(id_funcionario: int, nome: str, salario_base: float)&lt;/div&gt;&lt;div&gt;+ calcular_pagamento(): float&lt;/div&gt;&lt;div&gt;+ exibir_dados(): str&lt;/div&gt;" style="text;strokeColor=none;fillColor=none;align=left;verticalAlign=top;spacingLeft=4;spacingRight=4;overflow=hidden;rotatable=0;points=[[0,0.5],[1,0.5]];portConstraint=eastwest;whiteSpace=wrap;html=1;" vertex="1" parent="3e57D6IeS3Btrj79OkyP-42">
          <mxGeometry y="34" width="320" height="166" as="geometry" />
        </mxCell>
        <mxCell id="3e57D6IeS3Btrj79OkyP-46" value="&lt;i&gt;Funcionario&lt;/i&gt;" style="swimlane;fontStyle=1;align=center;verticalAlign=top;childLayout=stackLayout;horizontal=1;startSize=26;horizontalStack=0;resizeParent=1;resizeParentMax=0;resizeLast=0;collapsible=1;marginBottom=0;whiteSpace=wrap;html=1;" vertex="1" parent="1">
          <mxGeometry x="-110" y="-370" width="500" height="210" as="geometry" />
        </mxCell>
        <mxCell id="3e57D6IeS3Btrj79OkyP-47" value="&lt;div&gt;- id_funcionario: int&lt;/div&gt;&lt;div&gt;- nome: str&lt;/div&gt;&lt;div&gt;- salario_base: float&lt;/div&gt;" style="text;strokeColor=none;fillColor=none;align=left;verticalAlign=top;spacingLeft=4;spacingRight=4;overflow=hidden;rotatable=0;points=[[0,0.5],[1,0.5]];portConstraint=eastwest;whiteSpace=wrap;html=1;" vertex="1" parent="3e57D6IeS3Btrj79OkyP-46">
          <mxGeometry y="26" width="500" height="54" as="geometry" />
        </mxCell>
        <mxCell id="3e57D6IeS3Btrj79OkyP-48" value="" style="line;strokeWidth=1;fillColor=none;align=left;verticalAlign=middle;spacingTop=-1;spacingLeft=3;spacingRight=3;rotatable=0;labelPosition=right;points=[];portConstraint=eastwest;strokeColor=inherit;" vertex="1" parent="3e57D6IeS3Btrj79OkyP-46">
          <mxGeometry y="80" width="500" height="8" as="geometry" />
        </mxCell>
        <mxCell id="3e57D6IeS3Btrj79OkyP-49" value="&lt;div&gt;+ &amp;lt;&amp;lt;create&amp;gt;&amp;gt; __init__(id: int, nome: str, salario_base: float)&lt;/div&gt;&lt;div&gt;+ calcular_pagamento(): float&lt;/div&gt;&lt;div&gt;+ id_funcionario(): int&lt;/div&gt;&lt;div&gt;+ exibir_dados(): str&lt;/div&gt;&lt;div&gt;+ nome(): str&lt;/div&gt;&lt;div&gt;+ nome(novo_nome: str)&lt;/div&gt;&lt;div&gt;+ salario_base(): float&lt;/div&gt;&lt;div&gt;+ salario_base(novo_salario: float)&lt;/div&gt;&lt;div&gt;&lt;br&gt;&lt;/div&gt;&lt;div&gt;&lt;br&gt;&lt;/div&gt;&lt;div&gt;&lt;br&gt;&lt;/div&gt;" style="text;strokeColor=none;fillColor=none;align=left;verticalAlign=top;spacingLeft=4;spacingRight=4;overflow=hidden;rotatable=0;points=[[0,0.5],[1,0.5]];portConstraint=eastwest;whiteSpace=wrap;html=1;" vertex="1" parent="3e57D6IeS3Btrj79OkyP-46">
          <mxGeometry y="88" width="500" height="122" as="geometry" />
        </mxCell>
        <mxCell id="3e57D6IeS3Btrj79OkyP-50" value="" style="endArrow=block;endSize=16;endFill=0;html=1;rounded=0;entryX=0.34;entryY=1;entryDx=0;entryDy=0;entryPerimeter=0;" edge="1" parent="1" target="3e57D6IeS3Btrj79OkyP-49">
          <mxGeometry width="160" relative="1" as="geometry">
            <mxPoint x="60" y="-40" as="sourcePoint" />
            <mxPoint x="180" y="-90" as="targetPoint" />
            <Array as="points" />
          </mxGeometry>
        </mxCell>
        <mxCell id="3e57D6IeS3Btrj79OkyP-52" value="" style="endArrow=block;endSize=16;endFill=0;html=1;rounded=0;entryX=0.657;entryY=1.017;entryDx=0;entryDy=0;entryPerimeter=0;" edge="1" parent="1" target="3e57D6IeS3Btrj79OkyP-49">
          <mxGeometry width="160" relative="1" as="geometry">
            <mxPoint x="219" y="-40" as="sourcePoint" />
            <mxPoint x="220" y="-149.99999999999977" as="targetPoint" />
          </mxGeometry>
        </mxCell>
        <mxCell id="ffVcCoAmGyAWJJrPgzNr-1" value="Carpdapio" style="swimlane;fontStyle=1;align=center;verticalAlign=top;childLayout=stackLayout;horizontal=1;startSize=26;horizontalStack=0;resizeParent=1;resizeParentMax=0;resizeLast=0;collapsible=1;marginBottom=0;whiteSpace=wrap;html=1;" vertex="1" parent="1">
          <mxGeometry x="661.71" y="-350" width="290" height="150" as="geometry" />
        </mxCell>
        <mxCell id="ffVcCoAmGyAWJJrPgzNr-2" value="-&amp;nbsp;itens: dict[int, Prato]" style="text;strokeColor=none;fillColor=none;align=left;verticalAlign=top;spacingLeft=4;spacingRight=4;overflow=hidden;rotatable=0;points=[[0,0.5],[1,0.5]];portConstraint=eastwest;whiteSpace=wrap;html=1;" vertex="1" parent="ffVcCoAmGyAWJJrPgzNr-1">
          <mxGeometry y="26" width="290" height="26" as="geometry" />
        </mxCell>
        <mxCell id="ffVcCoAmGyAWJJrPgzNr-3" value="" style="line;strokeWidth=1;fillColor=none;align=left;verticalAlign=middle;spacingTop=-1;spacingLeft=3;spacingRight=3;rotatable=0;labelPosition=right;points=[];portConstraint=eastwest;strokeColor=inherit;" vertex="1" parent="ffVcCoAmGyAWJJrPgzNr-1">
          <mxGeometry y="52" width="290" height="8" as="geometry" />
        </mxCell>
        <mxCell id="ffVcCoAmGyAWJJrPgzNr-4" value="&lt;div&gt;+ &amp;lt;&amp;lt;create&amp;gt;&amp;gt; __init__()&amp;nbsp;&lt;/div&gt;&lt;div&gt;+ adicionar_prato(prato: Prato): void&lt;/div&gt;&lt;div&gt;+ buscar_prato(id_prato: int): Optional[Prato]&amp;nbsp; &amp;nbsp; &amp;nbsp; &amp;nbsp; + remover_prato(id_prato: int): void&lt;/div&gt;&lt;div&gt;+ __str__(): str&lt;/div&gt;" style="text;strokeColor=none;fillColor=none;align=left;verticalAlign=top;spacingLeft=4;spacingRight=4;overflow=hidden;rotatable=0;points=[[0,0.5],[1,0.5]];portConstraint=eastwest;whiteSpace=wrap;html=1;" vertex="1" parent="ffVcCoAmGyAWJJrPgzNr-1">
          <mxGeometry y="60" width="290" height="90" as="geometry" />
        </mxCell>
        <mxCell id="c-ORk0PzQld6OX2D3ZMl-5" value="FilaDeEspera" style="swimlane;fontStyle=1;align=center;verticalAlign=top;childLayout=stackLayout;horizontal=1;startSize=26;horizontalStack=0;resizeParent=1;resizeParentMax=0;resizeLast=0;collapsible=1;marginBottom=0;whiteSpace=wrap;html=1;" vertex="1" parent="1">
          <mxGeometry x="-660" y="316" width="280" height="158" as="geometry" />
        </mxCell>
        <mxCell id="c-ORk0PzQld6OX2D3ZMl-6" value="&lt;div&gt;-&amp;nbsp;fila: List[GrupoCliente]&lt;/div&gt;" style="text;strokeColor=none;fillColor=none;align=left;verticalAlign=top;spacingLeft=4;spacingRight=4;overflow=hidden;rotatable=0;points=[[0,0.5],[1,0.5]];portConstraint=eastwest;whiteSpace=wrap;html=1;" vertex="1" parent="c-ORk0PzQld6OX2D3ZMl-5">
          <mxGeometry y="26" width="280" height="24" as="geometry" />
        </mxCell>
        <mxCell id="c-ORk0PzQld6OX2D3ZMl-7" value="" style="line;strokeWidth=1;fillColor=none;align=left;verticalAlign=middle;spacingTop=-1;spacingLeft=3;spacingRight=3;rotatable=0;labelPosition=right;points=[];portConstraint=eastwest;strokeColor=inherit;" vertex="1" parent="c-ORk0PzQld6OX2D3ZMl-5">
          <mxGeometry y="50" width="280" height="8" as="geometry" />
        </mxCell>
        <mxCell id="c-ORk0PzQld6OX2D3ZMl-8" value="&lt;div&gt;+ &amp;lt;&amp;lt;create&amp;gt;&amp;gt; __init__()&amp;nbsp;&lt;/div&gt;&lt;div&gt;+ adicionar_grupo(grupo: GrupoCliente): void + chamar_proximo_grupo(capacidade: int): Optional[GrupoCliente]&lt;/div&gt;&lt;div&gt;+ __len__(): int&lt;/div&gt;&lt;div&gt;+ __str__(): str&lt;/div&gt;" style="text;strokeColor=none;fillColor=none;align=left;verticalAlign=top;spacingLeft=4;spacingRight=4;overflow=hidden;rotatable=0;points=[[0,0.5],[1,0.5]];portConstraint=eastwest;whiteSpace=wrap;html=1;" vertex="1" parent="c-ORk0PzQld6OX2D3ZMl-5">
          <mxGeometry y="58" width="280" height="100" as="geometry" />
        </mxCell>
        <mxCell id="c-ORk0PzQld6OX2D3ZMl-10" value="&lt;div&gt;Prato&lt;/div&gt;&lt;div&gt;&lt;br&gt;&lt;/div&gt;" style="swimlane;fontStyle=1;align=center;verticalAlign=top;childLayout=stackLayout;horizontal=1;startSize=26;horizontalStack=0;resizeParent=1;resizeParentMax=0;resizeLast=0;collapsible=1;marginBottom=0;whiteSpace=wrap;html=1;" vertex="1" parent="1">
          <mxGeometry x="611.71" y="-50" width="390" height="270" as="geometry" />
        </mxCell>
        <mxCell id="c-ORk0PzQld6OX2D3ZMl-11" value="- id_prato: int&lt;br/&gt;- nome: str&lt;br/&gt;- preco: float&lt;br/&gt;- descricao: str" style="text;strokeColor=none;fillColor=none;align=left;verticalAlign=top;spacingLeft=4;spacingRight=4;overflow=hidden;rotatable=0;points=[[0,0.5],[1,0.5]];portConstraint=eastwest;whiteSpace=wrap;html=1;" vertex="1" parent="c-ORk0PzQld6OX2D3ZMl-10">
          <mxGeometry y="26" width="390" height="74" as="geometry" />
        </mxCell>
        <mxCell id="c-ORk0PzQld6OX2D3ZMl-12" value="" style="line;strokeWidth=1;fillColor=none;align=left;verticalAlign=middle;spacingTop=-1;spacingLeft=3;spacingRight=3;rotatable=0;labelPosition=right;points=[];portConstraint=eastwest;strokeColor=inherit;" vertex="1" parent="c-ORk0PzQld6OX2D3ZMl-10">
          <mxGeometry y="100" width="390" height="8" as="geometry" />
        </mxCell>
        <mxCell id="c-ORk0PzQld6OX2D3ZMl-13" value="&lt;div&gt;+ &amp;lt;&amp;lt;create&amp;gt;&amp;gt; __init__(id_prato: int, nome: str, preco: float, descricao: str)&lt;/div&gt;&lt;div&gt;+&amp;nbsp;get_id_prato(): int&lt;/div&gt;+ get_nome(): str&lt;br&gt;+ set_nome(novo_nome: str): void&lt;br&gt;+ get_preco(): float&lt;br&gt;&lt;div&gt;+ set_preco(novo_preco: float): void&lt;/div&gt;&lt;div&gt;+ get_descricao(): str&lt;/div&gt;&lt;div&gt;+ set_descricao(nova_descricao: str): void&lt;/div&gt;&lt;div&gt;+ __str__(): str&lt;/div&gt;&lt;div&gt;&lt;br&gt;&lt;/div&gt;" style="text;strokeColor=none;fillColor=none;align=left;verticalAlign=top;spacingLeft=4;spacingRight=4;overflow=hidden;rotatable=0;points=[[0,0.5],[1,0.5]];portConstraint=eastwest;whiteSpace=wrap;html=1;" vertex="1" parent="c-ORk0PzQld6OX2D3ZMl-10">
          <mxGeometry y="108" width="390" height="162" as="geometry" />
        </mxCell>
        <mxCell id="c-ORk0PzQld6OX2D3ZMl-15" value="" style="endArrow=block;startArrow=block;endFill=1;startFill=1;html=1;rounded=0;exitX=1;exitY=0.12;exitDx=0;exitDy=0;exitPerimeter=0;entryX=0;entryY=0.089;entryDx=0;entryDy=0;entryPerimeter=0;" edge="1" parent="1" target="3e57D6IeS3Btrj79OkyP-8">
          <mxGeometry width="160" relative="1" as="geometry">
            <mxPoint x="-449.9999999999998" y="60.000000000000014" as="sourcePoint" />
            <mxPoint x="-222.30999999999995" y="78.15999999999987" as="targetPoint" />
          </mxGeometry>
        </mxCell>
        <mxCell id="c-ORk0PzQld6OX2D3ZMl-16" value="&lt;font style=&quot;font-size: 14px;&quot;&gt;0..4&lt;/font&gt;" style="edgeLabel;html=1;align=center;verticalAlign=middle;resizable=0;points=[];" connectable="0" vertex="1" parent="c-ORk0PzQld6OX2D3ZMl-15">
          <mxGeometry x="-0.7507" y="-4" relative="1" as="geometry">
            <mxPoint x="171" y="6" as="offset" />
          </mxGeometry>
        </mxCell>
        <mxCell id="zmYv8G04ew4jA6_hHIKC-37" value="&lt;font style=&quot;font-size: 14px;&quot;&gt;1&lt;/font&gt;" style="edgeLabel;html=1;align=center;verticalAlign=middle;resizable=0;points=[];" connectable="0" vertex="1" parent="c-ORk0PzQld6OX2D3ZMl-15">
          <mxGeometry x="-0.7935" y="1" relative="1" as="geometry">
            <mxPoint x="1" y="11" as="offset" />
          </mxGeometry>
        </mxCell>
        <mxCell id="c-ORk0PzQld6OX2D3ZMl-19" value="GrupoCliente" style="swimlane;fontStyle=1;align=center;verticalAlign=top;childLayout=stackLayout;horizontal=1;startSize=26;horizontalStack=0;resizeParent=1;resizeParentMax=0;resizeLast=0;collapsible=1;marginBottom=0;whiteSpace=wrap;html=1;" vertex="1" parent="1">
          <mxGeometry x="-215" y="310" width="310" height="200" as="geometry" />
        </mxCell>
        <mxCell id="c-ORk0PzQld6OX2D3ZMl-20" value="&lt;div&gt;- id_grupo: int&amp;nbsp;&lt;/div&gt;&lt;div&gt;- numero_pessoas: int&lt;br&gt;- status: StatusGrupoCliente&lt;/div&gt;" style="text;strokeColor=none;fillColor=none;align=left;verticalAlign=top;spacingLeft=4;spacingRight=4;overflow=hidden;rotatable=0;points=[[0,0.5],[1,0.5]];portConstraint=eastwest;whiteSpace=wrap;html=1;" vertex="1" parent="c-ORk0PzQld6OX2D3ZMl-19">
          <mxGeometry y="26" width="310" height="54" as="geometry" />
        </mxCell>
        <mxCell id="c-ORk0PzQld6OX2D3ZMl-21" value="" style="line;strokeWidth=1;fillColor=none;align=left;verticalAlign=middle;spacingTop=-1;spacingLeft=3;spacingRight=3;rotatable=0;labelPosition=right;points=[];portConstraint=eastwest;strokeColor=inherit;" vertex="1" parent="c-ORk0PzQld6OX2D3ZMl-19">
          <mxGeometry y="80" width="310" height="8" as="geometry" />
        </mxCell>
        <mxCell id="c-ORk0PzQld6OX2D3ZMl-22" value="&lt;div&gt;+ &amp;lt;&amp;lt;create&amp;gt;&amp;gt; __init__(id_grupo: int, pessoas: int)&amp;nbsp;&lt;/div&gt;&lt;div&gt;+ get_id_grupo(): int&lt;/div&gt;&lt;div&gt;+ get_numero_pessoas(): int&lt;/div&gt;&lt;div&gt;+ set_status(novo_status: StatusGrupoCliente): void&lt;/div&gt;&lt;div&gt;+ sentar(): void&lt;/div&gt;&lt;div&gt;+ sair(): void&lt;/div&gt;&lt;div&gt;+ __str__(): str&lt;/div&gt;" style="text;strokeColor=none;fillColor=none;align=left;verticalAlign=top;spacingLeft=4;spacingRight=4;overflow=hidden;rotatable=0;points=[[0,0.5],[1,0.5]];portConstraint=eastwest;whiteSpace=wrap;html=1;" vertex="1" parent="c-ORk0PzQld6OX2D3ZMl-19">
          <mxGeometry y="88" width="310" height="112" as="geometry" />
        </mxCell>
        <mxCell id="c-ORk0PzQld6OX2D3ZMl-25" value="Pedido" style="swimlane;fontStyle=1;align=center;verticalAlign=top;childLayout=stackLayout;horizontal=1;startSize=26;horizontalStack=0;resizeParent=1;resizeParentMax=0;resizeLast=0;collapsible=1;marginBottom=0;whiteSpace=wrap;html=1;" vertex="1" parent="1">
          <mxGeometry x="676.71" y="620" width="260" height="200" as="geometry" />
        </mxCell>
        <mxCell id="c-ORk0PzQld6OX2D3ZMl-26" value="&lt;div&gt;&lt;div&gt;- proximo_id: int {static}&lt;/div&gt;&lt;/div&gt;&lt;div&gt;- id_pedido: int&amp;nbsp;&lt;/div&gt;&lt;div&gt;- itens: list&lt;/div&gt;" style="text;strokeColor=none;fillColor=none;align=left;verticalAlign=top;spacingLeft=4;spacingRight=4;overflow=hidden;rotatable=0;points=[[0,0.5],[1,0.5]];portConstraint=eastwest;whiteSpace=wrap;html=1;" vertex="1" parent="c-ORk0PzQld6OX2D3ZMl-25">
          <mxGeometry y="26" width="260" height="54" as="geometry" />
        </mxCell>
        <mxCell id="c-ORk0PzQld6OX2D3ZMl-27" value="" style="line;strokeWidth=1;fillColor=none;align=left;verticalAlign=middle;spacingTop=-1;spacingLeft=3;spacingRight=3;rotatable=0;labelPosition=right;points=[];portConstraint=eastwest;strokeColor=inherit;" vertex="1" parent="c-ORk0PzQld6OX2D3ZMl-25">
          <mxGeometry y="80" width="260" height="8" as="geometry" />
        </mxCell>
        <mxCell id="c-ORk0PzQld6OX2D3ZMl-28" value="&lt;div&gt;+ &amp;lt;&amp;lt;create&amp;gt;&amp;gt; __init__(id: int)&lt;/div&gt;&lt;div&gt;+ __init__()&amp;nbsp;&lt;/div&gt;&lt;div&gt;+ get_id_pedido(): int&amp;nbsp; &amp;nbsp; &amp;nbsp; &amp;nbsp; &amp;nbsp; &amp;nbsp; &amp;nbsp; &amp;nbsp; &amp;nbsp; &amp;nbsp; &amp;nbsp; &amp;nbsp; &amp;nbsp; &amp;nbsp; &amp;nbsp; &amp;nbsp; &amp;nbsp; &amp;nbsp; &amp;nbsp;&amp;nbsp;&lt;/div&gt;&lt;div&gt;+ get_itens(): list[ItemPedido]&amp;nbsp; &amp;nbsp; &amp;nbsp; &amp;nbsp; &amp;nbsp; &amp;nbsp; &amp;nbsp; &amp;nbsp; &amp;nbsp; &amp;nbsp; &amp;nbsp; &amp;nbsp; &amp;nbsp; + adicionar_item(item: ItemPedido):&amp;nbsp;&lt;/div&gt;&lt;div&gt;+ calcular_subtotal_pedido(): float&lt;/div&gt;&lt;div&gt;+ __str__(): str&lt;/div&gt;" style="text;strokeColor=none;fillColor=none;align=left;verticalAlign=top;spacingLeft=4;spacingRight=4;overflow=hidden;rotatable=0;points=[[0,0.5],[1,0.5]];portConstraint=eastwest;whiteSpace=wrap;html=1;" vertex="1" parent="c-ORk0PzQld6OX2D3ZMl-25">
          <mxGeometry y="88" width="260" height="112" as="geometry" />
        </mxCell>
        <mxCell id="c-ORk0PzQld6OX2D3ZMl-32" value="Conta" style="swimlane;fontStyle=1;align=center;verticalAlign=top;childLayout=stackLayout;horizontal=1;startSize=26;horizontalStack=0;resizeParent=1;resizeParentMax=0;resizeLast=0;collapsible=1;marginBottom=0;whiteSpace=wrap;html=1;" vertex="1" parent="1">
          <mxGeometry x="-280" y="610" width="400" height="200" as="geometry" />
        </mxCell>
        <mxCell id="c-ORk0PzQld6OX2D3ZMl-33" value="&lt;div&gt;- id_conta: int&amp;nbsp;&lt;/div&gt;&lt;div&gt;- grupo_cliente: GrupoCliente&lt;/div&gt;&lt;div&gt;- pedidos: list[Pedido]&lt;/div&gt;&lt;div&gt;- aberta: bool&lt;/div&gt;" style="text;strokeColor=none;fillColor=none;align=left;verticalAlign=top;spacingLeft=4;spacingRight=4;overflow=hidden;rotatable=0;points=[[0,0.5],[1,0.5]];portConstraint=eastwest;whiteSpace=wrap;html=1;" vertex="1" parent="c-ORk0PzQld6OX2D3ZMl-32">
          <mxGeometry y="26" width="400" height="64" as="geometry" />
        </mxCell>
        <mxCell id="c-ORk0PzQld6OX2D3ZMl-34" value="" style="line;strokeWidth=1;fillColor=none;align=left;verticalAlign=middle;spacingTop=-1;spacingLeft=3;spacingRight=3;rotatable=0;labelPosition=right;points=[];portConstraint=eastwest;strokeColor=inherit;" vertex="1" parent="c-ORk0PzQld6OX2D3ZMl-32">
          <mxGeometry y="90" width="400" height="8" as="geometry" />
        </mxCell>
        <mxCell id="c-ORk0PzQld6OX2D3ZMl-35" value="&lt;div&gt;+ &amp;lt;&amp;lt;create&amp;gt;&amp;gt;&amp;nbsp;__init__(id_conta: int, grupo_cliente: GrupoCliente)&amp;nbsp;&lt;/div&gt;&lt;div&gt;+ get_id_conta(): int&lt;/div&gt;&lt;div&gt;+ get_grupo_cliente(): GrupoCliente&lt;/div&gt;&lt;div&gt;+ adicionar_pedido(pedido: Pedido): void&lt;/div&gt;&lt;div&gt;+ calcular_total(): float&lt;/div&gt;&lt;div&gt;+ fechar_conta(): str&lt;/div&gt;" style="text;strokeColor=none;fillColor=none;align=left;verticalAlign=top;spacingLeft=4;spacingRight=4;overflow=hidden;rotatable=0;points=[[0,0.5],[1,0.5]];portConstraint=eastwest;whiteSpace=wrap;html=1;" vertex="1" parent="c-ORk0PzQld6OX2D3ZMl-32">
          <mxGeometry y="98" width="400" height="102" as="geometry" />
        </mxCell>
        <mxCell id="c-ORk0PzQld6OX2D3ZMl-43" value="" style="endArrow=open;endFill=1;endSize=12;html=1;rounded=0;entryX=0.499;entryY=0.985;entryDx=0;entryDy=0;entryPerimeter=0;" edge="1" parent="1">
          <mxGeometry width="160" relative="1" as="geometry">
            <mxPoint x="806.39" y="325" as="sourcePoint" />
            <mxPoint x="806.0000000000001" y="219.56999999999994" as="targetPoint" />
          </mxGeometry>
        </mxCell>
        <mxCell id="zmYv8G04ew4jA6_hHIKC-10" value="" style="endArrow=open;html=1;endSize=12;startArrow=diamondThin;startSize=14;startFill=0;edgeStyle=orthogonalEdgeStyle;align=left;verticalAlign=bottom;rounded=0;entryX=0;entryY=0.5;entryDx=0;entryDy=0;" edge="1" parent="1" target="c-ORk0PzQld6OX2D3ZMl-19">
          <mxGeometry x="-1" y="3" relative="1" as="geometry">
            <mxPoint x="-380" y="409.73999999999995" as="sourcePoint" />
            <mxPoint x="-220" y="410" as="targetPoint" />
          </mxGeometry>
        </mxCell>
        <mxCell id="zmYv8G04ew4jA6_hHIKC-39" value="&lt;font style=&quot;font-size: 14px;&quot;&gt;0..*&lt;/font&gt;" style="edgeLabel;html=1;align=center;verticalAlign=middle;resizable=0;points=[];" connectable="0" vertex="1" parent="zmYv8G04ew4jA6_hHIKC-10">
          <mxGeometry x="0.6999" y="1" relative="1" as="geometry">
            <mxPoint x="-5" y="15" as="offset" />
          </mxGeometry>
        </mxCell>
        <mxCell id="zmYv8G04ew4jA6_hHIKC-12" value="" style="endArrow=open;html=1;endSize=12;startArrow=diamondThin;startSize=14;startFill=0;edgeStyle=orthogonalEdgeStyle;align=left;verticalAlign=bottom;rounded=0;" edge="1" parent="1">
          <mxGeometry x="-1" y="3" relative="1" as="geometry">
            <mxPoint x="806.71" y="-200" as="sourcePoint" />
            <mxPoint x="806.71" y="-50" as="targetPoint" />
            <Array as="points">
              <mxPoint x="806.71" y="-58" />
            </Array>
          </mxGeometry>
        </mxCell>
        <mxCell id="zmYv8G04ew4jA6_hHIKC-15" value="" style="endArrow=open;endFill=1;endSize=12;html=1;rounded=0;exitX=0.48;exitY=-0.015;exitDx=0;exitDy=0;exitPerimeter=0;entryX=0.408;entryY=0.997;entryDx=0;entryDy=0;entryPerimeter=0;" edge="1" parent="1">
          <mxGeometry width="160" relative="1" as="geometry">
            <mxPoint x="-59.74000000000022" y="607.34" as="sourcePoint" />
            <mxPoint x="-60.25999999999998" y="510.00399999999973" as="targetPoint" />
          </mxGeometry>
        </mxCell>
        <mxCell id="zmYv8G04ew4jA6_hHIKC-16" value="" style="endArrow=open;html=1;endSize=12;startArrow=diamondThin;startSize=14;startFill=1;edgeStyle=orthogonalEdgeStyle;align=left;verticalAlign=bottom;rounded=0;exitX=0.5;exitY=0;exitDx=0;exitDy=0;entryX=0.437;entryY=0.996;entryDx=0;entryDy=0;entryPerimeter=0;" edge="1" parent="1">
          <mxGeometry x="-1" y="3" relative="1" as="geometry">
            <mxPoint x="806.9100000000001" y="620" as="sourcePoint" />
            <mxPoint x="806.7100000000003" y="484.712" as="targetPoint" />
            <Array as="points">
              <mxPoint x="806.9100000000001" y="570" />
              <mxPoint x="806.9100000000001" y="570" />
            </Array>
          </mxGeometry>
        </mxCell>
        <mxCell id="zmYv8G04ew4jA6_hHIKC-17" value="" style="endArrow=open;endFill=1;endSize=12;html=1;rounded=0;entryX=0.5;entryY=0;entryDx=0;entryDy=0;" edge="1" parent="1" target="c-ORk0PzQld6OX2D3ZMl-19">
          <mxGeometry width="160" relative="1" as="geometry">
            <mxPoint x="-450" y="220" as="sourcePoint" />
            <mxPoint x="-290" y="220" as="targetPoint" />
            <Array as="points">
              <mxPoint x="-60" y="220" />
            </Array>
          </mxGeometry>
        </mxCell>
        <mxCell id="zmYv8G04ew4jA6_hHIKC-18" value="&lt;font style=&quot;font-size: 14px;&quot;&gt;1&lt;/font&gt;" style="edgeLabel;html=1;align=center;verticalAlign=middle;resizable=0;points=[];" connectable="0" vertex="1" parent="zmYv8G04ew4jA6_hHIKC-17">
          <mxGeometry x="-0.9101" y="2" relative="1" as="geometry">
            <mxPoint x="-11" y="12" as="offset" />
          </mxGeometry>
        </mxCell>
        <mxCell id="zmYv8G04ew4jA6_hHIKC-19" value="&lt;font style=&quot;font-size: 14px;&quot;&gt;0..1&lt;/font&gt;" style="edgeLabel;html=1;align=center;verticalAlign=middle;resizable=0;points=[];" connectable="0" vertex="1" parent="zmYv8G04ew4jA6_hHIKC-17">
          <mxGeometry x="0.8755" y="-1" relative="1" as="geometry">
            <mxPoint x="-29" as="offset" />
          </mxGeometry>
        </mxCell>
        <mxCell id="zmYv8G04ew4jA6_hHIKC-21" value="" style="endArrow=open;html=1;endSize=12;startArrow=diamondThin;startSize=14;startFill=0;edgeStyle=orthogonalEdgeStyle;align=left;verticalAlign=bottom;rounded=0;" edge="1" parent="1">
          <mxGeometry x="-1" y="3" relative="1" as="geometry">
            <mxPoint x="120.43" y="700" as="sourcePoint" />
            <mxPoint x="670" y="700" as="targetPoint" />
            <Array as="points">
              <mxPoint x="650" y="700" />
            </Array>
            <mxPoint as="offset" />
          </mxGeometry>
        </mxCell>
        <mxCell id="zmYv8G04ew4jA6_hHIKC-38" value="&lt;font style=&quot;font-size: 14px;&quot;&gt;0..*&lt;/font&gt;" style="edgeLabel;html=1;align=center;verticalAlign=middle;resizable=0;points=[];" connectable="0" vertex="1" parent="zmYv8G04ew4jA6_hHIKC-21">
          <mxGeometry x="0.8348" y="2" relative="1" as="geometry">
            <mxPoint x="-5" y="22" as="offset" />
          </mxGeometry>
        </mxCell>
        <mxCell id="zmYv8G04ew4jA6_hHIKC-28" value="&lt;div&gt;&amp;lt;&amp;lt;enumeration&amp;gt;&amp;gt;&lt;/div&gt;&lt;div&gt;StatusGrupoCliente&lt;/div&gt;" style="swimlane;fontStyle=1;align=center;verticalAlign=top;childLayout=stackLayout;horizontal=1;startSize=44;horizontalStack=0;resizeParent=1;resizeParentMax=0;resizeLast=0;collapsible=1;marginBottom=0;whiteSpace=wrap;html=1;" vertex="1" parent="1">
          <mxGeometry x="255" y="356" width="160" height="108" as="geometry" />
        </mxCell>
        <mxCell id="zmYv8G04ew4jA6_hHIKC-29" value="ESPERANDO&lt;br/&gt;        SENTADO&lt;br/&gt;        SAIU" style="text;strokeColor=none;fillColor=none;align=left;verticalAlign=top;spacingLeft=4;spacingRight=4;overflow=hidden;rotatable=0;points=[[0,0.5],[1,0.5]];portConstraint=eastwest;whiteSpace=wrap;html=1;" vertex="1" parent="zmYv8G04ew4jA6_hHIKC-28">
          <mxGeometry y="44" width="160" height="56" as="geometry" />
        </mxCell>
        <mxCell id="zmYv8G04ew4jA6_hHIKC-30" value="" style="line;strokeWidth=1;fillColor=none;align=left;verticalAlign=middle;spacingTop=-1;spacingLeft=3;spacingRight=3;rotatable=0;labelPosition=right;points=[];portConstraint=eastwest;strokeColor=inherit;" vertex="1" parent="zmYv8G04ew4jA6_hHIKC-28">
          <mxGeometry y="100" width="160" height="8" as="geometry" />
        </mxCell>
        <mxCell id="zmYv8G04ew4jA6_hHIKC-32" value="" style="endArrow=open;endSize=12;dashed=1;html=1;rounded=0;entryX=-0.014;entryY=0.186;entryDx=0;entryDy=0;entryPerimeter=0;" edge="1" parent="1" target="zmYv8G04ew4jA6_hHIKC-29">
          <mxGeometry width="160" relative="1" as="geometry">
            <mxPoint x="100" y="410" as="sourcePoint" />
            <mxPoint x="250" y="411" as="targetPoint" />
          </mxGeometry>
        </mxCell>
        <mxCell id="zmYv8G04ew4jA6_hHIKC-33" value="&lt;div&gt;&amp;lt;&amp;lt;enumeration&amp;gt;&amp;gt;&lt;/div&gt;&lt;div&gt;StatusMesa&lt;/div&gt;" style="swimlane;fontStyle=1;align=center;verticalAlign=top;childLayout=stackLayout;horizontal=1;startSize=44;horizontalStack=0;resizeParent=1;resizeParentMax=0;resizeLast=0;collapsible=1;marginBottom=0;whiteSpace=wrap;html=1;" vertex="1" parent="1">
          <mxGeometry x="-710" y="-287" width="160" height="108" as="geometry" />
        </mxCell>
        <mxCell id="zmYv8G04ew4jA6_hHIKC-34" value="&lt;div&gt;LIVRE&lt;/div&gt;&lt;div&gt;OCUPADA&lt;/div&gt;&lt;div&gt;SUJA&lt;/div&gt;" style="text;strokeColor=none;fillColor=none;align=left;verticalAlign=top;spacingLeft=4;spacingRight=4;overflow=hidden;rotatable=0;points=[[0,0.5],[1,0.5]];portConstraint=eastwest;whiteSpace=wrap;html=1;" vertex="1" parent="zmYv8G04ew4jA6_hHIKC-33">
          <mxGeometry y="44" width="160" height="56" as="geometry" />
        </mxCell>
        <mxCell id="zmYv8G04ew4jA6_hHIKC-35" value="" style="line;strokeWidth=1;fillColor=none;align=left;verticalAlign=middle;spacingTop=-1;spacingLeft=3;spacingRight=3;rotatable=0;labelPosition=right;points=[];portConstraint=eastwest;strokeColor=inherit;" vertex="1" parent="zmYv8G04ew4jA6_hHIKC-33">
          <mxGeometry y="100" width="160" height="8" as="geometry" />
        </mxCell>
        <mxCell id="zmYv8G04ew4jA6_hHIKC-36" value="" style="endArrow=open;endSize=12;dashed=1;html=1;rounded=0;exitX=0.468;exitY=-0.009;exitDx=0;exitDy=0;exitPerimeter=0;entryX=0.438;entryY=0.875;entryDx=0;entryDy=0;entryPerimeter=0;" edge="1" parent="1" source="3e57D6IeS3Btrj79OkyP-38" target="zmYv8G04ew4jA6_hHIKC-35">
          <mxGeometry width="160" relative="1" as="geometry">
            <mxPoint x="-530" y="-160" as="sourcePoint" />
            <mxPoint x="-370" y="-160" as="targetPoint" />
          </mxGeometry>
        </mxCell>
        <mxCell id="zmYv8G04ew4jA6_hHIKC-40" value="" style="endArrow=open;html=1;endSize=12;startArrow=diamondThin;startSize=14;startFill=1;edgeStyle=orthogonalEdgeStyle;align=left;verticalAlign=bottom;rounded=0;exitX=0.137;exitY=0.998;exitDx=0;exitDy=0;exitPerimeter=0;" edge="1" parent="1" source="3e57D6IeS3Btrj79OkyP-41">
          <mxGeometry x="-1" y="3" relative="1" as="geometry">
            <mxPoint x="-760" y="700" as="sourcePoint" />
            <mxPoint x="-280" y="699.9999999999999" as="targetPoint" />
            <Array as="points">
              <mxPoint x="-761" y="700" />
            </Array>
          </mxGeometry>
        </mxCell>
        <mxCell id="zmYv8G04ew4jA6_hHIKC-43" value="&lt;font style=&quot;font-size: 10px;&quot;&gt;-mesas_atendidas&lt;/font&gt;" style="text;html=1;align=center;verticalAlign=middle;resizable=0;points=[];autosize=1;strokeColor=none;fillColor=none;" vertex="1" parent="1">
          <mxGeometry x="-320" y="30" width="110" height="30" as="geometry" />
        </mxCell>
        <mxCell id="zmYv8G04ew4jA6_hHIKC-44" value="&lt;font style=&quot;font-size: 10px;&quot;&gt;-garcom_responsavel&lt;/font&gt;" style="text;html=1;align=center;verticalAlign=middle;resizable=0;points=[];autosize=1;strokeColor=none;fillColor=none;" vertex="1" parent="1">
          <mxGeometry x="-450" y="30" width="120" height="30" as="geometry" />
        </mxCell>
        <mxCell id="zmYv8G04ew4jA6_hHIKC-48" value="&lt;font style=&quot;font-size: 14px;&quot;&gt;-conta 0..1&lt;/font&gt;" style="text;html=1;align=center;verticalAlign=middle;resizable=0;points=[];autosize=1;strokeColor=none;fillColor=none;" vertex="1" parent="1">
          <mxGeometry x="-385" y="670" width="90" height="30" as="geometry" />
        </mxCell>
        <mxCell id="zmYv8G04ew4jA6_hHIKC-50" value="&lt;font style=&quot;font-size: 14px;&quot;&gt;- grupo_cliente&lt;/font&gt;" style="text;html=1;align=center;verticalAlign=middle;resizable=0;points=[];autosize=1;strokeColor=none;fillColor=none;" vertex="1" parent="1">
          <mxGeometry x="-60" y="268" width="120" height="30" as="geometry" />
        </mxCell>
        <mxCell id="zmYv8G04ew4jA6_hHIKC-51" value="&lt;font style=&quot;font-size: 14px;&quot;&gt;-fila&lt;/font&gt;" style="text;html=1;align=center;verticalAlign=middle;resizable=0;points=[];autosize=1;strokeColor=none;fillColor=none;" vertex="1" parent="1">
          <mxGeometry x="-270" y="380" width="50" height="30" as="geometry" />
        </mxCell>
        <mxCell id="zmYv8G04ew4jA6_hHIKC-55" value="&lt;font style=&quot;font-size: 14px;&quot;&gt;-pedidos&lt;/font&gt;" style="text;html=1;align=center;verticalAlign=middle;resizable=0;points=[];autosize=1;strokeColor=none;fillColor=none;" vertex="1" parent="1">
          <mxGeometry x="580" y="670" width="80" height="30" as="geometry" />
        </mxCell>
        <mxCell id="zmYv8G04ew4jA6_hHIKC-56" value="1..*" style="text;html=1;align=center;verticalAlign=middle;resizable=0;points=[];autosize=1;strokeColor=none;fillColor=none;" vertex="1" parent="1">
          <mxGeometry x="770" y="500" width="40" height="30" as="geometry" />
        </mxCell>
        <mxCell id="zmYv8G04ew4jA6_hHIKC-57" value="-itens" style="text;html=1;align=center;verticalAlign=middle;resizable=0;points=[];autosize=1;strokeColor=none;fillColor=none;" vertex="1" parent="1">
          <mxGeometry x="806" y="498" width="50" height="30" as="geometry" />
        </mxCell>
        <mxCell id="zmYv8G04ew4jA6_hHIKC-58" value="&lt;font style=&quot;font-size: 14px;&quot;&gt;*&lt;/font&gt;" style="text;html=1;align=center;verticalAlign=middle;resizable=0;points=[];autosize=1;strokeColor=none;fillColor=none;" vertex="1" parent="1">
          <mxGeometry x="796" y="298" width="30" height="30" as="geometry" />
        </mxCell>
        <mxCell id="zmYv8G04ew4jA6_hHIKC-59" value="-prato" style="text;html=1;align=center;verticalAlign=middle;resizable=0;points=[];autosize=1;strokeColor=none;fillColor=none;" vertex="1" parent="1">
          <mxGeometry x="796" y="230" width="60" height="30" as="geometry" />
        </mxCell>
        <mxCell id="zmYv8G04ew4jA6_hHIKC-60" value="1" style="text;html=1;align=center;verticalAlign=middle;resizable=0;points=[];autosize=1;strokeColor=none;fillColor=none;" vertex="1" parent="1">
          <mxGeometry x="775" y="230" width="30" height="30" as="geometry" />
        </mxCell>
        <mxCell id="zmYv8G04ew4jA6_hHIKC-62" value="&lt;div&gt;-grupo_cliente&lt;/div&gt;&lt;div&gt;&lt;br&gt;&lt;/div&gt;" style="text;html=1;align=center;verticalAlign=middle;resizable=0;points=[];autosize=1;strokeColor=none;fillColor=none;" vertex="1" parent="1">
          <mxGeometry x="-70" y="520" width="110" height="40" as="geometry" />
        </mxCell>
        <mxCell id="zmYv8G04ew4jA6_hHIKC-63" value="&lt;div&gt;1&lt;/div&gt;&lt;div&gt;&lt;br&gt;&lt;/div&gt;" style="text;html=1;align=center;verticalAlign=middle;resizable=0;points=[];autosize=1;strokeColor=none;fillColor=none;" vertex="1" parent="1">
          <mxGeometry x="-95" y="520" width="30" height="40" as="geometry" />
        </mxCell>
        <mxCell id="-tnqnrcfxLSBLK9qMM6K-1" value="&lt;div&gt;-itens&lt;/div&gt;" style="text;html=1;align=center;verticalAlign=middle;resizable=0;points=[];autosize=1;strokeColor=none;fillColor=none;" vertex="1" parent="1">
          <mxGeometry x="805" y="-92" width="50" height="30" as="geometry" />
        </mxCell>
        <mxCell id="-tnqnrcfxLSBLK9qMM6K-2" value="0..*" style="text;html=1;align=center;verticalAlign=middle;resizable=0;points=[];autosize=1;strokeColor=none;fillColor=none;" vertex="1" parent="1">
          <mxGeometry x="760" y="-92" width="40" height="30" as="geometry" />
        </mxCell>
      </root>
    </mxGraphModel>
  </diagram>
</mxfile>
